<?xml version="1.0" encoding="UTF-8" standalone="no"?>
<!DOCTYPE svg PUBLIC "-//W3C//DTD SVG 1.1//EN"
 "http://www.w3.org/Graphics/SVG/1.1/DTD/svg11.dtd">
<!-- Generated by graphviz version 2.40.1 (20161225.0304)
 -->
<!-- Title: dependencies Pages: 1 -->
<svg width="504pt" height="284pt"
 viewBox="0.00 0.00 504.00 284.00" xmlns="http://www.w3.org/2000/svg" xmlns:xlink="http://www.w3.org/1999/xlink">
<g id="graph0" class="graph" transform="scale(1 1) rotate(0) translate(4 280)">
<title>dependencies</title>
<polygon fill="#ffffff" stroke="transparent" points="-4,4 -4,-280 500,-280 500,4 -4,4"/>
<text text-anchor="start" x="227.0091" y="-42.4" font-family="sans-serif" font-weight="bold" font-size="14.00" fill="#000000">Legend</text>
<polygon fill="#ffffb3" stroke="transparent" points="14,-10 14,-30 34,-30 34,-10 14,-10"/>
<text text-anchor="start" x="37.629" y="-15.4" font-family="sans-serif" font-size="14.00" fill="#000000"> &#160;Declarations</text>
<polygon fill="#8dd3c7" stroke="transparent" points="127,-10 127,-30 147,-30 147,-10 127,-10"/>
<text text-anchor="start" x="150.7251" y="-15.4" font-family="sans-serif" font-size="14.00" fill="#000000"> &#160;Module</text>
<polygon fill="#80b1d3" stroke="transparent" points="213,-10 213,-30 233,-30 233,-10 213,-10"/>
<text text-anchor="start" x="236.7812" y="-15.4" font-family="sans-serif" font-size="14.00" fill="#000000"> &#160;Bootstrap</text>
<polygon fill="#fdb462" stroke="transparent" points="310,-10 310,-30 330,-30 330,-10 310,-10"/>
<text text-anchor="start" x="333.6732" y="-15.4" font-family="sans-serif" font-size="14.00" fill="#000000"> &#160;Providers</text>
<polygon fill="#fb8072" stroke="transparent" points="406,-10 406,-30 426,-30 426,-10 406,-10"/>
<text text-anchor="start" x="429.7258" y="-15.4" font-family="sans-serif" font-size="14.00" fill="#000000"> &#160;Exports</text>
<g id="clust1" class="cluster">
<title>cluster_AppModule</title>
<polygon fill="none" stroke="#000000" stroke-dasharray="1,5" points="71,-70 71,-268 425,-268 425,-70 71,-70"/>
</g>
<g id="clust2" class="cluster">
<title>cluster_AppModule_declarations</title>
<polygon fill="none" stroke="#000000" points="85,-78 85,-130 412,-130 412,-78 85,-78"/>
</g>
<g id="clust6" class="cluster">
<title>cluster_AppModule_exports</title>
<polygon fill="none" stroke="#000000" points="79,-208 79,-260 285,-260 285,-208 79,-208"/>
</g>
<g id="clust7" class="cluster">
<title>cluster_AppModule_bootstrap</title>
<polygon fill="none" stroke="#000000" points="293,-208 293,-260 417,-260 417,-208 293,-208"/>
</g>
<!-- AppComponent -->
<g id="node1" class="node">
<title>AppComponent</title>
<polygon fill="#ffffb3" stroke="#000000" points="403.9399,-122 298.0601,-122 298.0601,-86 403.9399,-86 403.9399,-122"/>
<text text-anchor="middle" x="351" y="-99.8" font-family="Times,serif" font-size="14.00" fill="#000000">AppComponent</text>
</g>
<!-- AppModule -->
<g id="node3" class="node">
<title>AppModule</title>
<polygon fill="#8dd3c7" stroke="#000000" points="228.6571,-187 225.6571,-191 204.6571,-191 201.6571,-187 145.3429,-187 145.3429,-151 228.6571,-151 228.6571,-187"/>
<text text-anchor="middle" x="187" y="-164.8" font-family="Times,serif" font-size="14.00" fill="#000000">AppModule</text>
</g>
<!-- AppComponent&#45;&gt;AppModule -->
<g id="edge1" class="edge">
<title>AppComponent&#45;&gt;AppModule</title>
<path fill="none" stroke="#000000" d="M369.3232,-122.0225C369.3232,-139.3734 369.3232,-163 369.3232,-163 369.3232,-163 238.8286,-163 238.8286,-163"/>
<polygon fill="#000000" stroke="#000000" points="238.8287,-159.5001 228.8286,-163 238.8286,-166.5001 238.8287,-159.5001"/>
</g>
<!-- DlDateTimePickerComponent -->
<g id="node2" class="node">
<title>DlDateTimePickerComponent</title>
<polygon fill="#ffffb3" stroke="#000000" points="280.5674,-122 93.4326,-122 93.4326,-86 280.5674,-86 280.5674,-122"/>
<text text-anchor="middle" x="187" y="-99.8" font-family="Times,serif" font-size="14.00" fill="#000000">DlDateTimePickerComponent</text>
</g>
<!-- DlDateTimePickerComponent&#45;&gt;AppModule -->
<g id="edge2" class="edge">
<title>DlDateTimePickerComponent&#45;&gt;AppModule</title>
<path fill="none" stroke="#000000" d="M187,-122.1061C187,-122.1061 187,-140.991 187,-140.991"/>
<polygon fill="#000000" stroke="#000000" points="183.5001,-140.9909 187,-150.991 190.5001,-140.991 183.5001,-140.9909"/>
</g>
<!-- DlDateTimePickerComponent  -->
<g id="node4" class="node">
<title>DlDateTimePickerComponent </title>
<polygon fill="#fb8072" stroke="#000000" points="277.0679,-252 86.9321,-252 86.9321,-216 277.0679,-216 277.0679,-252"/>
<text text-anchor="middle" x="182" y="-229.8" font-family="Times,serif" font-size="14.00" fill="#000000">DlDateTimePickerComponent </text>
</g>
<!-- AppModule&#45;&gt;DlDateTimePickerComponent  -->
<g id="edge3" class="edge">
<title>AppModule&#45;&gt;DlDateTimePickerComponent </title>
<path fill="none" stroke="#000000" stroke-dasharray="5,2" d="M187,-187.1061C187,-187.1061 187,-205.991 187,-205.991"/>
<polygon fill="#000000" stroke="#000000" points="183.5001,-205.9909 187,-215.991 190.5001,-205.991 183.5001,-205.9909"/>
</g>
<!-- AppComponent  -->
<g id="node5" class="node">
<title>AppComponent </title>
<polygon fill="#80b1d3" stroke="#000000" points="409.439,-252 300.561,-252 300.561,-216 409.439,-216 409.439,-252"/>
<text text-anchor="middle" x="355" y="-229.8" font-family="Times,serif" font-size="14.00" fill="#000000">AppComponent </text>
</g>
<!-- AppModule&#45;&gt;AppComponent  -->
<g id="edge4" class="edge">
<title>AppModule&#45;&gt;AppComponent </title>
<path fill="none" stroke="#000000" stroke-dasharray="1,5" d="M228.9942,-175C272.7279,-175 334.9268,-175 334.9268,-175 334.9268,-175 334.9268,-205.9775 334.9268,-205.9775"/>
<polygon fill="#000000" stroke="#000000" points="331.4269,-205.9774 334.9268,-215.9775 338.4269,-205.9775 331.4269,-205.9774"/>
</g>
</g>
</svg>
