<?xml version="1.0" encoding="UTF-8" standalone="no"?>
<!DOCTYPE svg PUBLIC "-//W3C//DTD SVG 1.1//EN"
 "http://www.w3.org/Graphics/SVG/1.1/DTD/svg11.dtd">
<!-- Generated by graphviz version 2.40.1 (20161225.0304)
 -->
<!-- Title: dependencies Pages: 1 -->
<svg width="568pt" height="284pt"
 viewBox="0.00 0.00 568.00 284.00" xmlns="http://www.w3.org/2000/svg" xmlns:xlink="http://www.w3.org/1999/xlink">
<g id="graph0" class="graph" transform="scale(1 1) rotate(0) translate(4 280)">
<title>dependencies</title>
<polygon fill="#ffffff" stroke="transparent" points="-4,4 -4,-280 564,-280 564,4 -4,4"/>
<text text-anchor="start" x="259.0091" y="-42.4" font-family="sans-serif" font-weight="bold" font-size="14.00" fill="#000000">Legend</text>
<polygon fill="#ffffb3" stroke="transparent" points="46,-10 46,-30 66,-30 66,-10 46,-10"/>
<text text-anchor="start" x="69.629" y="-15.4" font-family="sans-serif" font-size="14.00" fill="#000000"> &#160;Declarations</text>
<polygon fill="#8dd3c7" stroke="transparent" points="159,-10 159,-30 179,-30 179,-10 159,-10"/>
<text text-anchor="start" x="182.7251" y="-15.4" font-family="sans-serif" font-size="14.00" fill="#000000"> &#160;Module</text>
<polygon fill="#80b1d3" stroke="transparent" points="245,-10 245,-30 265,-30 265,-10 245,-10"/>
<text text-anchor="start" x="268.7812" y="-15.4" font-family="sans-serif" font-size="14.00" fill="#000000"> &#160;Bootstrap</text>
<polygon fill="#fdb462" stroke="transparent" points="342,-10 342,-30 362,-30 362,-10 342,-10"/>
<text text-anchor="start" x="365.6732" y="-15.4" font-family="sans-serif" font-size="14.00" fill="#000000"> &#160;Providers</text>
<polygon fill="#fb8072" stroke="transparent" points="438,-10 438,-30 458,-30 458,-10 438,-10"/>
<text text-anchor="start" x="461.7258" y="-15.4" font-family="sans-serif" font-size="14.00" fill="#000000"> &#160;Exports</text>
<g id="clust1" class="cluster">
<title>cluster_AppModule</title>
<polygon fill="none" stroke="#000000" stroke-dasharray="1,5" points="8,-70 8,-268 362,-268 362,-70 8,-70"/>
</g>
<g id="clust2" class="cluster">
<title>cluster_AppModule_declarations</title>
<polygon fill="none" stroke="#000000" points="27,-78 27,-130 354,-130 354,-78 27,-78"/>
</g>
<g id="clust6" class="cluster">
<title>cluster_AppModule_exports</title>
<polygon fill="none" stroke="#000000" points="148,-208 148,-260 354,-260 354,-208 148,-208"/>
</g>
<g id="clust7" class="cluster">
<title>cluster_AppModule_bootstrap</title>
<polygon fill="none" stroke="#000000" points="16,-208 16,-260 140,-260 140,-208 16,-208"/>
</g>
<g id="clust15" class="cluster">
<title>cluster_DlDateTimePickerModule</title>
<polygon fill="none" stroke="#000000" stroke-dasharray="1,5" points="370,-143 370,-195 552,-195 552,-143 370,-143"/>
</g>
<!-- AppComponent -->
<g id="node1" class="node">
<title>AppComponent</title>
<polygon fill="#ffffb3" stroke="#000000" points="140.9399,-122 35.0601,-122 35.0601,-86 140.9399,-86 140.9399,-122"/>
<text text-anchor="middle" x="88" y="-99.8" font-family="Times,serif" font-size="14.00" fill="#000000">AppComponent</text>
</g>
<!-- AppModule -->
<g id="node3" class="node">
<title>AppModule</title>
<polygon fill="#8dd3c7" stroke="#000000" points="210.6571,-187 207.6571,-191 186.6571,-191 183.6571,-187 127.3429,-187 127.3429,-151 210.6571,-151 210.6571,-187"/>
<text text-anchor="middle" x="169" y="-164.8" font-family="Times,serif" font-size="14.00" fill="#000000">AppModule</text>
</g>
<!-- AppComponent&#45;&gt;AppModule -->
<g id="edge1" class="edge">
<title>AppComponent&#45;&gt;AppModule</title>
<path fill="none" stroke="#000000" d="M133.9457,-122.1061C133.9457,-122.1061 133.9457,-140.991 133.9457,-140.991"/>
<polygon fill="#000000" stroke="#000000" points="130.4457,-140.9909 133.9457,-150.991 137.4457,-140.991 130.4457,-140.9909"/>
</g>
<!-- DlDateTimePickerComponent -->
<g id="node2" class="node">
<title>DlDateTimePickerComponent</title>
<polygon fill="#ffffb3" stroke="#000000" points="345.5674,-122 158.4326,-122 158.4326,-86 345.5674,-86 345.5674,-122"/>
<text text-anchor="middle" x="252" y="-99.8" font-family="Times,serif" font-size="14.00" fill="#000000">DlDateTimePickerComponent</text>
</g>
<!-- DlDateTimePickerComponent&#45;&gt;AppModule -->
<g id="edge2" class="edge">
<title>DlDateTimePickerComponent&#45;&gt;AppModule</title>
<path fill="none" stroke="#000000" d="M184.6472,-122.1061C184.6472,-122.1061 184.6472,-140.991 184.6472,-140.991"/>
<polygon fill="#000000" stroke="#000000" points="181.1473,-140.9909 184.6472,-150.991 188.1473,-140.991 181.1473,-140.9909"/>
</g>
<!-- DlDateTimePickerModule -->
<g id="node6" class="node">
<title>DlDateTimePickerModule</title>
<polygon fill="#8dd3c7" stroke="#000000" points="543.785,-187 540.785,-191 519.785,-191 516.785,-187 378.215,-187 378.215,-151 543.785,-151 543.785,-187"/>
<text text-anchor="middle" x="461" y="-164.8" font-family="Times,serif" font-size="14.00" fill="#000000">DlDateTimePickerModule</text>
</g>
<!-- DlDateTimePickerComponent&#45;&gt;DlDateTimePickerModule -->
<g id="edge5" class="edge">
<title>DlDateTimePickerComponent&#45;&gt;DlDateTimePickerModule</title>
<path fill="none" stroke="#000000" d="M300.6319,-122.0225C300.6319,-139.3734 300.6319,-163 300.6319,-163 300.6319,-163 367.9975,-163 367.9975,-163"/>
<polygon fill="#000000" stroke="#000000" points="367.9975,-166.5001 377.9975,-163 367.9974,-159.5001 367.9975,-166.5001"/>
</g>
<!-- DlDateTimePickerComponent  -->
<g id="node4" class="node">
<title>DlDateTimePickerComponent </title>
<polygon fill="#fb8072" stroke="#000000" points="346.0679,-252 155.9321,-252 155.9321,-216 346.0679,-216 346.0679,-252"/>
<text text-anchor="middle" x="251" y="-229.8" font-family="Times,serif" font-size="14.00" fill="#000000">DlDateTimePickerComponent </text>
</g>
<!-- AppModule&#45;&gt;DlDateTimePickerComponent  -->
<g id="edge3" class="edge">
<title>AppModule&#45;&gt;DlDateTimePickerComponent </title>
<path fill="none" stroke="#000000" stroke-dasharray="5,2" d="M183.2722,-187.1061C183.2722,-187.1061 183.2722,-205.991 183.2722,-205.991"/>
<polygon fill="#000000" stroke="#000000" points="179.7723,-205.9909 183.2722,-215.991 186.7723,-205.991 179.7723,-205.9909"/>
</g>
<!-- AppComponent  -->
<g id="node5" class="node">
<title>AppComponent </title>
<polygon fill="#80b1d3" stroke="#000000" points="132.439,-252 23.561,-252 23.561,-216 132.439,-216 132.439,-252"/>
<text text-anchor="middle" x="78" y="-229.8" font-family="Times,serif" font-size="14.00" fill="#000000">AppComponent </text>
</g>
<!-- AppModule&#45;&gt;AppComponent  -->
<g id="edge4" class="edge">
<title>AppModule&#45;&gt;AppComponent </title>
<path fill="none" stroke="#000000" stroke-dasharray="1,5" d="M144.0929,-187.1061C144.0929,-206.3391 144.0929,-234 144.0929,-234 144.0929,-234 142.5804,-234 142.5804,-234"/>
<polygon fill="#000000" stroke="#000000" points="142.5804,-230.5001 132.5804,-234 142.5804,-237.5001 142.5804,-230.5001"/>
</g>
<!-- DlDateTimePickerModule&#45;&gt;DlDateTimePickerComponent  -->
<g id="edge6" class="edge">
<title>DlDateTimePickerModule&#45;&gt;DlDateTimePickerComponent </title>
<path fill="none" stroke="#000000" stroke-dasharray="5,2" d="M378.1005,-175C321.1305,-175 255.73,-175 255.73,-175 255.73,-175 255.73,-205.9775 255.73,-205.9775"/>
<polygon fill="#000000" stroke="#000000" points="252.2301,-205.9774 255.73,-215.9775 259.2301,-205.9775 252.2301,-205.9774"/>
</g>
</g>
</svg>
